<svg xmlns="http://www.w3.org/2000/svg" viewBox="0 0 200 200" width="200" height="200" role="img" aria-label="Oktogon Labs">
  <path d="M183.05,135.75L135.75,183.05L120.12,145.31L145.31,120.12Z" fill="#d8403c"></path><path d="M133.45,184.00L66.55,184.00L82.19,146.26L117.81,146.26Z" fill="#ee8235"></path><path d="M64.25,183.05L16.95,135.75L54.69,120.12L79.88,145.31Z" fill="#e6c23a"></path><path d="M16.00,133.45L16.00,66.55L53.74,82.19L53.74,117.81Z" fill="#58b06a"></path><path d="M16.95,64.25L64.25,16.95L79.88,54.69L54.69,79.88Z" fill="#239b97"></path><path d="M66.55,16.00L133.45,16.00L117.81,53.74L82.19,53.74Z" fill="#2f7fb5"></path><path d="M135.75,16.95L183.05,64.25L145.31,79.88L120.12,54.69Z" fill="#4a3f86"></path><path d="M184.00,66.55L184.00,133.45L146.26,117.81L146.26,82.19Z" fill="#c2417f"></path>
</svg>